<?xml version="1.0" encoding="UTF-8" standalone="no"?>
<!-- Created with Inkscape (http://www.inkscape.org/) -->

<svg
   width="204.42168mm"
   height="133.09814mm"
   viewBox="0 0 204.42168 133.09814"
   version="1.1"
   id="svg1"
   xml:space="preserve"
   xmlns="http://www.w3.org/2000/svg"
   xmlns:svg="http://www.w3.org/2000/svg"><defs
     id="defs1" /><g
     id="layer1"
     transform="translate(-2.7892768,-54.194657)"><path
       id="path1"
       style="opacity:1;fill:#5271ff;stroke-width:1.96057;stroke-linecap:round;stroke-linejoin:round"
       d="m 174.07721,82.522182 c -0.10226,0.0085 -0.20972,0.02974 -0.3313,0.05876 -0.48244,0.119967 -0.80834,0.311122 -1.29786,1.071921 l -4.75573,7.386895 a 2.9411477,2.9411477 0 0 1 -0.4782,0.433619 c 12.1749,8.737123 22.35172,19.662843 28.42804,31.928473 -15.06023,30.40039 -55.08572,52.81146 -89.17969,53.10439 -34.932663,0.3001 -76.933475,-22.50128 -92.092486,-53.10439 5.064366,-10.22511 13.165524,-19.54466 22.958027,-27.457434 a 2.9411477,2.9411477 0 0 1 -0.737574,-0.624088 l -5.9239,-8.540886 C 18.835182,96.314119 9.1551882,107.97735 3.2567181,121.20433 a 5.3921041,5.3921041 0 0 0 0,4.39203 c 16.5620959,37.13955 62.8400559,62.04042 103.2979619,61.69285 39.512,-0.33947 83.74853,-25.00355 100.18453,-61.68172 a 5.3921041,5.3921041 0 0 0 0,-4.41126 c -6.8448,-15.27468 -18.52036,-28.455052 -32.65896,-38.674048 -0.001,7.9e-5 -0.002,-7.8e-5 -0.003,0 z m -14.19629,4.033362 a 2.9411477,2.9411477 0 0 1 -0.0436,0.03243 c 0.0126,0.0076 0.0249,0.01565 0.0375,0.02329 a 2.9411477,2.9411477 0 0 1 0.006,-0.05572 z" /><path
       style="display:inline;opacity:1;fill:#5271ff;fill-opacity:1;stroke:none;stroke-width:3.92114;stroke-linecap:round;stroke-linejoin:round;stroke-dasharray:none;stroke-opacity:1"
       d="m 75.575967,98.234595 c -9.58992,-6.932474 -36.06489,-0.733939 -36.27478,20.751805 -0.260799,26.69701 24.304947,28.47463 31.699584,25.81718 0,0 2.914418,17.87929 21.732189,20.58839 18.81778,2.70909 26.30739,-14.37919 26.30739,-14.37919 12.8538,2.1399 19.79747,-6.06735 8.21868,-11.33266 l -19.85836,-9.03034 5.09118,22.98364 c -7.97234,-0.11548 -8.23047,-5.89485 -18.975805,-30.38959 0,0 -23.893893,-8.6683 -20.002149,-16.35021 3.93457,-7.766437 25.290008,6.52694 25.290008,6.52694 25.881216,-6.58585 29.320406,-8.32125 35.790716,-3.23743 l -22.32649,9.81874 39.08236,21.39663 c 11.25633,6.16258 18.88275,-11.05112 19.30102,-20.77811 0.40258,-9.36215 -1.44257,-14.48894 -14.02917,-22.875996 -13.74939,-6.932475 -24.8368,2.287616 -24.8368,2.287616 C 126.47065,87.669088 115.91863,81.556387 104.98795,81.077616 93.648709,80.580945 81.121945,85.987233 75.575967,98.234595 Z"
       id="path2" /><path
       d="M 39.005652,93.644883 26.344535,75.386884 29.329256,73.317113 41.990374,91.57511 Z m 20.584117,-12.111215 -3.170183,1.6773 -4.832903,-9.134427 q -0.909722,-1.719421 -2.055992,-2.196123 -1.132836,-0.48381 -2.63733,0.312197 -2.001514,1.058974 -2.302955,2.731474 -0.301441,1.672499 1.169752,4.453127 l 3.916072,7.401578 -3.156749,1.670189 -7.860575,-14.856877 2.471668,-1.307727 1.473834,1.713245 0.161198,-0.08528 q 0.110184,-1.416566 1.040404,-2.648049 0.930223,-1.23148 2.434717,-2.027489 5.346327,-2.828668 8.224746,2.611688 z M 78.175217,74.7884 74.780284,75.945044 71.447583,66.163028 q -0.627331,-1.84132 -1.684133,-2.49274 -1.042415,-0.656325 -2.653571,-0.1074 -2.143412,0.730253 -2.704709,2.334332 -0.561295,1.604078 0.453217,4.581838 l 2.700468,7.92631 -3.38055,1.151742 -5.420539,-15.910159 2.6469,-0.901789 1.185364,1.924135 0.172628,-0.05882 q 0.332083,-1.381491 1.444789,-2.450956 1.112705,-1.069463 2.723859,-1.618377 5.725356,-1.95061 7.710274,3.875443 z M 96.374151,62.845858 q 0.665142,4.064399 -1.046493,6.685217 -1.711626,2.620821 -5.431077,3.229503 -2.324656,0.380425 -4.281198,-0.377351 -1.95654,-0.757776 -3.237919,-2.565407 -1.281381,-1.80763 -1.705986,-4.402246 -0.660221,-4.034404 1.038863,-6.637771 1.699086,-2.603367 5.463529,-3.219411 3.599468,-0.589047 6.079584,1.391998 2.477669,1.966049 3.120697,5.895468 z m -12.073208,1.97576 q 0.94002,5.744152 5.184393,5.049567 4.199379,-0.68722 3.259358,-6.431372 -0.930202,-5.684161 -5.159577,-4.992031 -2.219672,0.363247 -2.983995,1.997471 -0.749328,1.63177 -0.300179,4.376365 z m 20.775467,6.280795 -6.114249,-16.90776 3.768449,0.06005 3.26327,9.825094 q 0.8421,2.475691 1.00022,3.998132 l 0.12156,0.0019 q 0.1541,-1.091886 1.12711,-3.964233 l 3.57465,-9.716132 3.79883,0.06054 -6.68024,16.703878 z m 23.15068,2.631813 -0.25762,-2.433353 -0.1194,-0.02306 q -1.48474,1.276597 -2.79999,1.595323 -1.31238,0.303806 -3.20743,-0.06211 -2.43224,-0.469629 -3.55149,-2.047804 -1.10433,-1.575294 -0.64046,-3.977681 0.49269,-2.551607 2.63839,-3.483885 2.14573,-0.932276 6.0484,-0.302545 l 2.86733,0.460773 0.16998,-0.88038 q 0.30542,-1.581697 -0.29085,-2.501682 -0.57846,-0.932025 -2.13031,-1.231667 -1.26835,-0.244898 -2.50426,-0.0966 -1.23592,0.148317 -2.40824,0.448204 l -0.65001,-2.725809 q 1.47837,-0.442014 3.14413,-0.49185 1.66864,-0.06476 3.08621,0.208956 3.14847,0.607925 4.48001,2.289005 1.34648,1.683959 0.7789,4.623528 l -2.14647,11.116644 z m -4.7616,-3.395876 q 1.90997,0.368789 3.2635,-0.4688 1.37132,-0.849628 1.74301,-2.774525 l 0.27658,-1.43248 -2.13616,-0.319596 q -2.49428,-0.388744 -3.77239,0.138377 -1.26029,0.515075 -1.55418,2.037084 -0.21321,1.104204 0.32522,1.842765 0.54131,0.723638 1.85442,0.97718 z m 25.36277,10.182458 0.0959,-6.556219 -7.95123,-2.991286 -4.2066,5.009739 -3.58446,-1.348488 15.636,-17.953785 3.69827,1.391296 -0.0749,23.807931 z m 0.30208,-9.823488 0.18096,-6.394265 q 6.9e-4,-0.649228 0.0769,-2.016974 0.0904,-1.362396 0.16214,-1.984869 -1.04224,1.605075 -2.56315,3.403523 l -3.91635,4.713 z m 8.61143,14.350652 -3.16754,-1.649648 7.76388,-14.907636 3.16753,1.649648 z m 6.46442,-20.604871 q 0.44225,-0.84917 1.13921,-1.068779 0.71043,-0.21259 1.57308,0.236676 0.83568,0.435227 1.0553,1.13218 0.23309,0.703975 -0.20915,1.553143 -0.42119,0.808733 -1.13864,1.034802 -0.69697,0.219609 -1.53266,-0.215618 -0.86265,-0.449266 -1.09574,-1.15324 -0.21258,-0.710432 0.2086,-1.519164 z m 14.4395,13.294795 q 0.90741,0.583842 1.41308,1.089908 l -2.09481,2.609768 q -0.54035,-0.56452 -1.23049,-1.008569 -1.80202,-1.159459 -3.68323,-0.707301 -1.86842,0.460383 -3.07721,2.339096 l -4.75297,7.387056 -3.00339,-1.932435 9.09478,-14.135086 2.35159,1.513054 -1.20732,2.747088 0.15332,0.09868 q 1.51701,-0.812985 3.11861,-0.830613 1.61442,-0.0094 2.918,0.829356 z"
       id="text2"
       style="font-weight:600;font-size:15.875px;font-family:'Open Sans';-inkscape-font-specification:'Open Sans, Semi-Bold';text-align:center;letter-spacing:0px;word-spacing:0px;text-anchor:middle;display:inline;fill:#5271ff;stroke-width:0.784228;stroke-linecap:round;stroke-linejoin:round"
       aria-label="InnovaAir" /></g></svg>
